<svg width="28" height="27" viewBox="0 0 28 27" fill="none" xmlns="http://www.w3.org/2000/svg">
<path d="M13.6381 0.164017C6.10699 0.164017 0 6.20082 0 13.6479C0 19.6054 3.90774 24.6598 9.3266 26.4427C10.0082 26.5676 10.2584 26.1502 10.2584 25.7941C10.2584 25.4726 10.2458 24.4104 10.2399 23.2837C6.44575 24.0993 5.64515 21.6927 5.64515 21.6927C5.02476 20.1342 4.13088 19.7198 4.13088 19.7198C2.89349 18.8829 4.22415 18.9001 4.22415 18.9001C5.59365 18.9952 6.31477 20.2896 6.31477 20.2896C7.53115 22.351 9.50524 21.755 10.2835 21.4105C10.4059 20.539 10.7593 19.9442 11.1494 19.6075C8.12015 19.2665 4.93578 18.1103 4.93578 12.9437C4.93578 11.4715 5.46854 10.2687 6.34096 9.32439C6.19936 8.98477 5.73255 7.61334 6.47308 5.75603C6.47308 5.75603 7.61833 5.39364 10.2245 7.13818C11.3124 6.83942 12.4791 6.6896 13.6381 6.68446C14.7972 6.6896 15.9648 6.83942 17.0547 7.13818C19.6577 5.39364 20.8014 5.75603 20.8014 5.75603C21.5437 7.61334 21.0767 8.98477 20.9351 9.32439C21.8096 10.2687 22.3387 11.4715 22.3387 12.9437C22.3387 18.1226 19.1482 19.2629 16.1113 19.5967C16.6005 20.0152 17.0364 20.8358 17.0364 22.0938C17.0364 23.8979 17.0206 25.35 17.0206 25.7941C17.0206 26.1529 17.2661 26.5734 17.9574 26.441C23.3733 24.656 27.2761 19.6034 27.2761 13.6479C27.2761 6.20082 21.17 0.164017 13.6381 0.164017ZM5.10793 19.3721C5.07789 19.4391 4.97129 19.4592 4.87418 19.4132C4.77526 19.3692 4.71971 19.2779 4.75178 19.2107C4.78114 19.1417 4.88796 19.1225 4.98665 19.1687C5.0858 19.2127 5.14226 19.3049 5.10793 19.3721ZM5.77877 19.9639C5.71373 20.0235 5.58658 19.9959 5.50031 19.9016C5.4111 19.8076 5.39439 19.6819 5.46034 19.6214C5.52741 19.5618 5.65072 19.5897 5.74015 19.6837C5.82936 19.7788 5.84675 19.9036 5.77877 19.9639ZM6.239 20.7211C6.15544 20.7785 6.0188 20.7247 5.93434 20.6048C5.85078 20.4849 5.85078 20.3411 5.93614 20.2835C6.02084 20.2259 6.15544 20.2777 6.24103 20.3967C6.32437 20.5186 6.32437 20.6624 6.239 20.7211ZM7.01734 21.5981C6.94258 21.6796 6.78337 21.6577 6.66683 21.5465C6.54759 21.4378 6.51439 21.2835 6.58937 21.202C6.66502 21.1202 6.82515 21.1432 6.94258 21.2536C7.06093 21.3621 7.09706 21.5175 7.01734 21.5981ZM8.02327 21.8941C7.99029 21.9998 7.83695 22.0478 7.68247 22.0029C7.52822 21.9567 7.42727 21.833 7.45844 21.7262C7.49051 21.6199 7.64453 21.5699 7.80013 21.6179C7.95416 21.6639 8.05534 21.7867 8.02327 21.8941ZM9.16805 22.0197C9.17189 22.1309 9.0409 22.2231 8.87875 22.2251C8.71569 22.2287 8.5838 22.1387 8.58199 22.0293C8.58199 21.917 8.71005 21.8257 8.87311 21.823C9.03526 21.8199 9.16805 21.9092 9.16805 22.0197ZM10.2927 21.9771C10.3121 22.0856 10.1994 22.197 10.0384 22.2267C9.88007 22.2553 9.7335 22.1883 9.7134 22.0807C9.69375 21.9695 9.80848 21.8581 9.96656 21.8293C10.1278 21.8016 10.2721 21.8668 10.2927 21.9771Z" fill="#A9EF23"/>
</svg>
