<svg width="27" height="27" viewBox="0 0 27 27" fill="none" xmlns="http://www.w3.org/2000/svg">
<path fill-rule="evenodd" clip-rule="evenodd" d="M17.3093 23.48C17.9147 22.5467 18.5213 21.3467 18.9573 19.8067C19.964 20.1933 20.6547 20.6547 21.0787 21.0187C19.9925 22.0975 18.6914 22.9357 17.26 23.4787H17.3093V23.48ZM5.576 21.0067C6.024 20.6427 6.70267 20.1933 7.70933 19.7933C8.15733 21.3453 8.74 22.5453 9.35733 23.4787C7.94711 22.924 6.6676 22.0822 5.6 21.0067H5.576ZM19.7573 12.1213C19.72 11.0413 19.6107 9.96267 19.4307 8.89733C20.764 8.412 21.7333 7.83067 22.412 7.29733C23.3584 8.74599 23.9445 10.4 24.1213 12.1213H19.7573ZM7.79333 6.52133C7.08778 6.26138 6.42288 5.90222 5.81867 5.45467C6.84055 4.4774 8.0423 3.70763 9.35733 3.188C8.788 4.036 8.23067 5.12667 7.78133 6.52133H7.79467H7.79333ZM17.3093 3.188C18.6252 3.70595 19.8273 4.47592 20.848 5.45467C20.2431 5.90109 19.5783 6.26017 18.8733 6.52133C18.512 5.33985 17.9811 4.21704 17.2973 3.188H17.3093ZM17.0667 9.49067C17.1867 10.2907 17.3093 11.152 17.3333 12.1213H9.33333C9.36933 11.152 9.45333 10.2787 9.576 9.49067C12.0493 9.936 14.5813 9.936 17.0547 9.49067H17.0667ZM13.3333 7.39333C12.12 7.39333 11.0533 7.29733 10.1467 7.152C11.1147 4.16933 12.6187 2.96933 13.3333 2.54533C14.024 2.96933 15.54 4.18133 16.5093 7.152C15.4587 7.31653 14.3967 7.39723 13.3333 7.39333ZM4.24267 7.29733C5.14902 7.98643 6.1595 8.52655 7.236 8.89733C7.05606 9.96361 6.94693 11.0406 6.90933 12.1213H2.496C2.68744 10.3957 3.29058 8.74129 4.25467 7.29733H4.24267ZM2.50933 14.5453H6.90933C6.95733 15.588 7.02933 16.5453 7.176 17.4187C6.05925 17.8022 5.01723 18.376 4.096 19.1147C3.22417 17.7321 2.67713 16.1698 2.496 14.5453H2.50933ZM13.3333 16.4853C11.88 16.4853 10.6307 16.6053 9.54 16.8C9.43344 16.0528 9.36446 15.3008 9.33333 14.5467H17.3333C17.2973 15.3573 17.236 16.12 17.14 16.8C15.884 16.5729 14.6096 16.4636 13.3333 16.4733V16.4853ZM13.3333 24.1213C12.6067 23.6853 11.0067 22.388 10.036 19.152C11.1258 18.9744 12.2292 18.8932 13.3333 18.9093C14.6067 18.9093 15.6973 18.9933 16.6427 19.152C15.6733 22.424 14.0733 23.6853 13.3453 24.1213H13.3333ZM22.5693 19.1027C21.6492 18.3631 20.6075 17.7892 19.4907 17.4067C19.6368 16.4591 19.7258 15.5036 19.7573 14.5453H24.1707C23.9878 16.1657 23.4395 17.7236 22.5693 19.1027ZM13.3333 0C5.96933 0 0 5.96933 0 13.3333C0 20.6973 5.96933 26.6667 13.3333 26.6667C20.6973 26.6667 26.6667 20.6973 26.6667 13.3333C26.6667 5.96933 20.6973 0 13.3333 0Z" fill="#D9D9D9" stroke="#D9D9D9" stroke-width="0.00064"/>
</svg>
