<svg width="27" height="27" viewBox="0 0 27 27" fill="none" xmlns="http://www.w3.org/2000/svg">
<g clip-path="url(#clip0_27_154)">
<path d="M0 3.13642C0 2.22731 0.304063 1.47731 0.912162 0.886423C1.52026 0.295506 2.31082 6.10352e-05 3.28378 6.10352e-05C4.23939 6.10352e-05 5.01254 0.290951 5.60328 0.872787C6.21138 1.47279 6.51544 2.25458 6.51544 3.21824C6.51544 4.09096 6.22009 4.81822 5.62934 5.40005C5.02124 6.00005 4.22201 6.30005 3.23166 6.30005H3.2056C2.24999 6.30005 1.47684 6.00005 0.8861 5.40005C0.295358 4.80005 0 4.0455 0 3.13642ZM0.338803 27V8.78187H6.12452V27H0.338803ZM9.33012 27H15.1158V16.8273C15.1158 16.1909 15.1853 15.7 15.3243 15.3546C15.5676 14.7364 15.9368 14.2137 16.4319 13.7864C16.9271 13.3591 17.5483 13.1455 18.2954 13.1455C20.2413 13.1455 21.2143 14.5182 21.2143 17.2637V27H27V16.5546C27 13.8637 26.3919 11.8228 25.1757 10.4319C23.9594 9.04096 22.3523 8.3455 20.3542 8.3455C18.1129 8.3455 16.3668 9.35459 15.1158 11.3728V11.4273H15.0898L15.1158 11.3728V8.78187H9.33012C9.36486 9.36367 9.38224 11.1728 9.38224 14.2091C9.38224 17.2455 9.36486 21.5091 9.33012 27Z" fill="#DCDCDC"/>
</g>
<defs>
<clipPath id="clip0_27_154">
<rect width="27" height="27" fill="white"/>
</clipPath>
</defs>
</svg>
