<svg width="40" height="40" viewBox="0 0 40 40" fill="none" xmlns="http://www.w3.org/2000/svg">
<g clip-path="url(#clip0_46_118)">
<path fill-rule="evenodd" clip-rule="evenodd" d="M30.942 28.4922C30.46 29.8566 28.544 30.9853 27.016 31.3154C25.97 31.5375 24.606 31.7132 20.01 29.8086C14.848 27.67 7.67999 20.0519 7.67999 14.9824C7.67999 12.4016 9.16799 9.39648 11.77 9.39648C13.022 9.39648 13.298 9.4209 13.71 10.4092C14.192 11.5735 15.368 14.4422 15.508 14.7363C16.086 15.9427 14.92 16.6489 14.074 17.6992C13.804 18.0153 13.498 18.3572 13.84 18.9453C14.18 19.5215 15.356 21.4381 17.084 22.9766C19.316 24.9652 21.126 25.6 21.774 25.8701C22.256 26.0702 22.832 26.0236 23.184 25.6475C23.63 25.1653 24.184 24.3654 24.748 23.5771C25.146 23.013 25.652 22.9425 26.182 23.1426C26.54 23.2666 31.09 25.3797 31.282 25.7178C31.424 25.9639 31.424 27.1278 30.942 28.4922ZM19.304 0.25H19.294C8.26798 0.25 -0.700012 9.2207 -0.700012 20.25C-0.700012 24.6233 0.710002 28.6807 3.108 31.9717L0.615997 39.4033L8.302 36.9473C11.464 39.0399 15.238 40.25 19.304 40.25C30.33 40.25 39.3 31.2793 39.3 20.25C39.3 9.2207 30.33 0.25 19.304 0.25Z" fill="#D9D9D9"/>
</g>
<defs>
<clipPath id="clip0_46_118">
<rect width="40" height="40" fill="white" transform="translate(-0.700012 0.25)"/>
</clipPath>
</defs>
</svg>
